<svg width="451" height="301" viewBox="0 0 451 301" fill="none" xmlns="http://www.w3.org/2000/svg">
<path d="M225.834 62.5488C217.534 62.6488 209.334 63.9488 201.434 66.4488C205.134 72.8488 207.034 80.1488 207.134 87.5488C207.134 111.749 187.534 131.349 163.334 131.349C155.934 131.249 148.634 129.349 142.234 125.649C128.834 171.949 155.634 220.349 201.934 233.649C248.234 246.949 296.634 220.249 309.934 173.949C323.234 127.649 296.534 79.2488 250.234 65.9488C242.334 63.6488 234.134 62.5488 225.834 62.5488ZM448.134 138.649C405.734 55.9488 321.834 0.0488281 225.834 0.0488281C129.834 0.0488281 45.934 56.0488 3.53398 138.649C-0.0660157 145.849 -0.0660157 154.249 3.53398 161.449C45.934 244.149 129.834 300.049 225.834 300.049C321.834 300.049 405.734 244.049 448.134 161.449C451.734 154.249 451.734 145.849 448.134 138.649ZM225.834 262.549C148.734 262.549 78.134 219.549 39.934 150.049C78.134 80.5488 148.734 37.5488 225.834 37.5488C302.934 37.5488 373.534 80.5488 411.734 150.049C373.534 219.549 302.934 262.549 225.834 262.549Z" fill="#FDB913"/>
</svg>
