<svg width="400" height="400" viewBox="0 0 400 400" fill="none" xmlns="http://www.w3.org/2000/svg">
<circle cx="200" cy="200" r="200" fill="#E84E0E"/>
<g clip-path="url(#clip0_15_63)">
<path d="M165.006 200C165.006 180.671 180.671 164.997 200 164.997C219.329 164.997 235.003 180.671 235.003 200C235.003 219.329 219.329 235.003 200 235.003C180.671 235.003 165.006 219.329 165.006 200ZM146.084 200C146.084 229.778 170.222 253.916 200 253.916C229.778 253.916 253.916 229.778 253.916 200C253.916 170.222 229.778 146.084 200 146.084C170.222 146.084 146.084 170.222 146.084 200ZM243.45 143.946C243.45 150.901 249.09 156.55 256.054 156.55C263.008 156.55 268.657 150.901 268.657 143.946C268.657 136.992 263.017 131.351 256.054 131.351C249.09 131.351 243.45 136.992 243.45 143.946ZM157.576 285.467C147.339 285.001 141.775 283.296 138.077 281.854C133.175 279.946 129.681 277.673 126 274C122.327 270.328 120.046 266.834 118.146 261.931C116.704 258.233 114.999 252.67 114.533 242.433C114.024 231.364 113.922 228.04 113.922 200C113.922 171.96 114.032 168.644 114.533 157.567C114.999 147.33 116.712 141.775 118.146 138.069C120.054 133.166 122.327 129.672 126 125.991C129.672 122.319 133.166 120.037 138.077 118.137C141.775 116.695 147.339 114.991 157.576 114.524C168.644 114.015 171.969 113.914 200 113.914C228.04 113.914 231.356 114.024 242.433 114.524C252.67 114.991 258.225 116.704 261.931 118.137C266.834 120.037 270.328 122.319 274.009 125.991C277.681 129.664 279.954 133.166 281.863 138.069C283.305 141.767 285.009 147.33 285.476 157.567C285.985 168.644 286.086 171.96 286.086 200C286.086 228.031 285.985 231.356 285.476 242.433C285.009 252.67 283.296 258.233 281.863 261.931C279.954 266.834 277.681 270.328 274.009 274C270.336 277.673 266.834 279.946 261.931 281.854C258.233 283.296 252.67 285.001 242.433 285.467C231.364 285.976 228.04 286.078 200 286.078C171.969 286.078 168.644 285.976 157.576 285.467ZM156.711 95.6361C145.532 96.145 137.899 97.9176 131.224 100.513C124.32 103.193 118.468 106.789 112.624 112.624C106.789 118.46 103.193 124.312 100.513 131.224C97.9176 137.899 96.145 145.532 95.6361 156.711C95.1187 167.906 95 171.485 95 200C95 228.515 95.1187 232.094 95.6361 243.289C96.145 254.468 97.9176 262.101 100.513 268.776C103.193 275.68 106.781 281.54 112.624 287.376C118.46 293.211 124.312 296.798 131.224 299.487C137.908 302.082 145.532 303.855 156.711 304.364C167.915 304.873 171.485 305 200 305C228.523 305 232.094 304.881 243.289 304.364C254.468 303.855 262.101 302.082 268.776 299.487C275.68 296.798 281.532 293.211 287.376 287.376C293.211 281.54 296.798 275.68 299.487 268.776C302.082 262.101 303.863 254.468 304.364 243.289C304.873 232.085 304.992 228.515 304.992 200C304.992 171.485 304.873 167.906 304.364 156.711C303.855 145.532 302.082 137.899 299.487 131.224C296.798 124.32 293.211 118.468 287.376 112.624C281.54 106.789 275.68 103.193 268.784 100.513C262.101 97.9176 254.468 96.1365 243.298 95.6361C232.102 95.1272 228.523 95 200.008 95C171.485 95 167.915 95.1187 156.711 95.6361Z" fill="white"/>
</g>
<defs>
<clipPath id="clip0_15_63">
<rect width="210" height="210" fill="white" transform="translate(95 95)"/>
</clipPath>
</defs>
</svg>
