<svg width="400" height="400" viewBox="0 0 400 400" fill="none" xmlns="http://www.w3.org/2000/svg">
<g clip-path="url(#clip0_37_51)">
<path d="M200 400C310.457 400 400 310.457 400 200C400 89.5431 310.457 0 200 0C89.5431 0 0 89.5431 0 200C0 310.457 89.5431 400 200 400Z" fill="#FDB913"/>
<mask id="mask0_37_51" style="mask-type:luminance" maskUnits="userSpaceOnUse" x="80" y="80" width="240" height="240">
<path d="M320 80H80V320H320V80Z" fill="white"/>
</mask>
<g mask="url(#mask0_37_51)">
<path d="M267.5 119.4L120.7 180.8C112.4 184.3 112.6 196.1 120.9 199.3L174.3 220C176.9 221 179 223.1 180 225.7L200.6 279C203.8 287.4 215.7 287.6 219.2 279.3L280.7 132.6C284 124.3 275.7 116 267.5 119.4Z" fill="white"/>
</g>
</g>
<defs>
<clipPath id="clip0_37_51">
<rect width="400" height="400" fill="white"/>
</clipPath>
</defs>
</svg>
