<svg width="400" height="400" viewBox="0 0 400 400" fill="none" xmlns="http://www.w3.org/2000/svg">
<circle cx="200" cy="200" r="200" fill="#E84E0E"/>
<g clip-path="url(#clip0_15_39)">
<path d="M128.706 231.421L153.577 228.581C159.55 227.896 165.425 229.952 169.635 234.162L187.652 252.179C215.362 238.079 238.079 215.46 252.179 187.652L234.065 169.537C229.854 165.327 227.798 159.452 228.483 153.479L231.323 128.804C232.498 118.914 240.821 111.473 250.808 111.473H267.748C278.812 111.473 288.017 120.677 287.331 131.741C282.142 215.362 215.265 282.141 131.742 287.331C120.677 288.016 111.473 278.812 111.473 267.748V250.808C111.375 240.918 118.817 232.596 128.706 231.421Z" fill="white"/>
</g>
<defs>
<clipPath id="clip0_15_39">
<rect width="235" height="235" fill="white" transform="matrix(-1 0 0 1 317 82)"/>
</clipPath>
</defs>
</svg>
