<svg width="400" height="400" viewBox="0 0 400 400" fill="none" xmlns="http://www.w3.org/2000/svg">
<circle cx="200" cy="200" r="200" fill="#E84E0E"/>
<g clip-path="url(#clip0_15_52)">
<path fill-rule="evenodd" clip-rule="evenodd" d="M268.584 130.483C250.255 112.125 225.878 102.01 199.907 102C146.395 102 102.843 145.566 102.822 199.116C102.814 216.234 107.285 232.943 115.781 247.671L102.008 298L153.474 284.494C167.654 292.232 183.62 296.309 199.868 296.316H199.908C253.415 296.316 296.971 252.744 296.993 199.194C297.003 173.243 286.914 148.841 268.584 130.483ZM199.908 279.912H199.875C185.396 279.907 171.194 276.016 158.805 268.66L155.858 266.911L125.318 274.926L133.47 245.137L131.551 242.083C123.473 229.23 119.207 214.375 119.213 199.122C119.231 154.614 155.43 118.403 199.94 118.403C221.493 118.412 241.754 126.819 256.989 142.078C272.224 157.336 280.609 177.618 280.601 199.188C280.583 243.699 244.384 279.912 199.908 279.912ZM244.17 219.454C241.744 218.24 229.818 212.369 227.594 211.559C225.371 210.749 223.754 210.344 222.136 212.774C220.519 215.203 215.87 220.669 214.455 222.289C213.04 223.908 211.625 224.111 209.199 222.896C206.773 221.682 198.957 219.119 189.691 210.851C182.48 204.417 177.611 196.469 176.196 194.04C174.781 191.61 176.046 190.297 177.26 189.087C178.351 188 179.686 186.253 180.899 184.836C182.112 183.419 182.516 182.406 183.324 180.787C184.133 179.167 183.729 177.75 183.122 176.535C182.516 175.321 177.665 163.376 175.643 158.517C173.674 153.785 171.674 154.425 170.185 154.351C168.772 154.281 167.153 154.266 165.536 154.266C163.919 154.266 161.291 154.873 159.067 157.302C156.843 159.732 150.577 165.603 150.577 177.548C150.577 189.492 159.269 201.032 160.482 202.651C161.695 204.271 177.587 228.783 201.922 239.295C207.71 241.795 212.228 243.288 215.751 244.407C221.562 246.253 226.851 245.993 231.031 245.368C235.691 244.672 245.383 239.497 247.404 233.829C249.426 228.16 249.426 223.301 248.819 222.289C248.213 221.277 246.596 220.669 244.17 219.454Z" fill="white"/>
</g>
<defs>
<clipPath id="clip0_15_52">
<rect width="195" height="196" fill="white" transform="translate(102 102)"/>
</clipPath>
</defs>
</svg>
